Results
version=1
nRows=11
nColumns=35
inDegrees=yes
endheader
time	/jointset/boatJoint/bJoint_3/value	/jointset/boatJoint/bJoint_3/speed	/jointset/seatJoint/seatpos/value	/jointset/seatJoint/seatpos/speed	/jointset/starboardlockJoint/slocangle/value	/jointset/starboardlockJoint/slocangle/speed	/jointset/starboardoarJoint/soarinout/value	/jointset/starboardoarJoint/soarinout/speed	/jointset/starboardbladeJoint/sblpos/value	/jointset/starboardbladeJoint/sblpos/speed	/jointset/hipJoint/hipangle/value	/jointset/hipJoint/hipangle/speed	/jointset/knee_Joint/kneeangle/value	/jointset/knee_Joint/kneeangle/speed	/jointset/foot_Joint/footangle/value	/jointset/foot_Joint/footangle/speed	/jointset/lbackJoint/lbackangle/value	/jointset/lbackJoint/lbackangle/speed	/jointset/upper_arm_left_Joint/uarmleft_out/value	/jointset/upper_arm_left_Joint/uarmleft_out/speed	/jointset/upper_arm_left_Joint/uarmleft_trn/value	/jointset/upper_arm_left_Joint/uarmleft_trn/speed	/jointset/upper_arm_left_Joint/uarmleft_up/value	/jointset/upper_arm_left_Joint/uarmleft_up/speed	/jointset/lower_arm_left_Joint/se_inout/value	/jointset/lower_arm_left_Joint/se_inout/speed	/jointset/lower_arm_left_Joint/se_updown/value	/jointset/lower_arm_left_Joint/se_updown/speed	/jointset/handle_left_Joint/handleleft_out/value	/jointset/handle_left_Joint/handleleft_out/speed	/jointset/handle_left_Joint/handleleft_trn/value	/jointset/handle_left_Joint/handleleft_trn/speed	/jointset/handle_left_Joint/handleleft_up/value	/jointset/handle_left_Joint/handleleft_up/speed
      0.40400000	     -0.13185834	     -0.65481456	     -0.40647424	      1.07786851	     58.53407425	   -103.05062268	     17.80091669	     -2.07930910	    -17.80091669	      2.07930910	     38.71631588	     77.92729699	    111.02774459	   -160.33042224	     59.74406046	    -82.40312526	     11.12677245	     -1.23382588	    -16.62925004	    -10.25386177	    -12.42188418	    153.44009985	    -80.19062027	     11.93228725	      5.18492911	     22.19592509	     -5.28997370	    -27.41369239	     -3.95044248	     13.15785639	     51.62000002	      2.56900624	     44.79059487	     22.02476260
      0.40600000	     -0.13318491	     -0.67182501	     -0.40427563	      1.11977006	     58.32923013	   -101.96924173	     17.79830233	     -0.61395260	    -17.79830233	      0.61395260	     38.87549574	     81.18673500	    110.70037370	   -166.90272552	     59.57586944	    -85.71599052	     11.12776978	      2.04312038	    -16.65289509	    -12.71801989	    -12.13039463	    138.85414171	    -80.16469932	     14.32673963	      5.21577708	      8.34273649	     -5.31945825	     -3.26177224	     -3.96706914	     26.70822798	     51.62821472	      8.43023790	     44.86293541	     21.66546887
      0.40800000	     -0.13454000	     -0.68037781	     -0.40201427	      1.13300979	     58.12514100	   -102.47173265	     17.79779441	     -0.14835315	    -17.79779441	      0.14835315	     39.03969112	     82.38726428	    110.36296051	   -169.23291590	     59.40265164	    -86.84565163	     11.13297274	      2.36201597	    -16.67627491	     -9.41188912	    -11.85921899	    135.14106887	    -80.13283969	     17.43110552	      5.22085028	     -1.68239584	     -5.31464290	      3.45716943	     -3.95777583	     32.93035200	     51.64497754	     10.05530846	     44.92998182	     18.20085011
      0.41000000	     -0.13589683	     -0.67454624	     -0.39977209	      1.10349801	     57.91825955	   -104.59981059	     17.79700207	     -0.74280428	    -17.79700207	      0.74280428	     39.20296908	     80.47484987	    110.02770285	   -165.17281277	     59.23067193	    -84.69796290	     11.13456826	     -1.29365967	    -16.68683290	     -0.54099633	    -11.58081796	    144.94713533	    -80.09587618	     19.18354784	      5.21465738	     -3.29307936	     -5.32054361	    -12.19517471	     -3.93642845	     27.79698261	     51.66007235	      6.68114773	     44.98218404	     12.96921711
      0.41200000	     -0.13723796	     -0.66838469	     -0.39760290	      1.07005999	     57.70663345	   -106.89043788	     17.79505191	     -0.99426383	    -17.79505191	      0.99426383	     39.36138504	     78.25654161	    109.70268189	   -160.49735587	     59.06406693	    -82.24081427	     11.12739868	     -5.54910353	    -16.67880191	      7.78676432	    -11.27875200	    155.77100623	    -80.05737254	     19.03447662	      5.20901943	     -2.89615355	     -5.36461260	    -29.63144562	     -3.91662301	     20.61247135	     51.66838513	      3.84635821	     45.01753252	      8.78503652
      0.41400000	     -0.13858109	     -0.67830660	     -0.39546381	      1.07869054	     57.49153737	   -107.92135785	     17.79400726	      0.22725622	    -17.79400726	     -0.22725622	     39.51804066	     79.10776574	    109.38151453	   -162.12258187	     58.89955519	    -83.01481613	     11.11465661	     -6.37784427	    -16.66049987	      8.89569193	    -10.96620228	    153.89219234	    -80.02047377	     17.78023767	      5.19982670	     -7.37198756	     -5.42459732	    -25.35961851	     -3.89728278	     22.55842956	     51.67658829	      6.65363060	     45.04514817	      8.63849708
      0.41600000	     -0.13996147	     -0.70363640	     -0.39325846	      1.13182356	     57.27574231	   -107.76122032	     17.79646147	      2.19991833	    -17.79646147	     -2.19991833	     39.68000685	     83.24368478	    109.04970882	   -170.46947954	     58.72971567	    -87.22579476	     11.10453841	     -3.22944417	    -16.64885782	      1.54578800	    -10.67200215	    138.78576037	    -79.98623926	     16.54206349	      5.17817898	    -13.87415564	     -5.45005602	      2.90419023	     -3.87074384	     34.35292244	     51.69503201	     13.51612154	     45.08243589	     14.17560371
      0.41800000	     -0.14139521	     -0.72833833	     -0.39093258	      1.19084958	     57.06041668	   -107.71463432	     17.80201600	      2.98603352	    -17.80201600	     -2.98603352	     39.85133167	     87.85200882	    108.69900240	   -179.76456661	     58.55033407	    -91.91255779	     11.10248217	      1.03441248	    -16.65664165	     -9.29292066	    -10.41202556	    122.23020791	    -79.95387891	     15.94786982	      5.14877774	    -13.70136346	     -5.40952467	     36.35149729	     -3.83930018	     46.88172314	     51.72504563	     18.18318124	     45.14698287	     24.21477980
      0.42000000	     -0.14286496	     -0.73825541	     -0.38851593	      1.21858466	     56.84414445	   -108.77619127	     17.80691004	      1.52817757	    -17.80691004	     -1.52817757	     40.02989750	     90.18377363	    108.33376577	   -184.38637795	     58.36366327	    -94.20260432	     11.10740495	      3.39149462	    -16.68353403	    -16.38836424	    -10.17608146	    116.17347015	    -79.92210815	     15.86851622	      5.12925633	     -4.70367032	     -5.31563286	     53.32530026	     -3.81685333	     51.13801502	     51.75730270	     17.09338732	     45.24562722	     33.98501331
      0.42200000	     -0.14433794	     -0.73272862	     -0.38608271	      1.20962997	     56.62475540	   -110.67252475	     17.80722663	     -1.28276767	    -17.80722663	      1.28276767	     40.21026158	     89.80840495	    107.96514904	   -183.47100358	     58.17541062	    -93.66259863	     11.11429031	      3.11165193	    -16.71666354	    -15.18656938	     -9.93836155	    123.57126833	    -79.89039834	     15.79981863	      5.13027256	      4.75790649	     -5.21316186	     44.89198827	     -3.81356109	     45.38820808	     51.78230371	     12.69314778	     45.36615953	     37.16955396
      0.42400000	     -0.14579188	     -0.72120214	     -0.38368750	      1.18553842	     56.40168509	   -112.22352508	     17.80216051	     -3.52087152	    -17.80216051	      3.52087152	     40.38837437	     88.29875692	    107.60142250	   -180.24563717	     57.98979687	    -91.94688025	     11.11908865	      1.68738570	    -16.73990166	     -7.41704422	     -9.67697358	    138.20395268	    -79.85895106	     15.66733288	      5.14272968	      5.88132086	     -5.14807503	     18.44307728	     -3.82354748	     34.51807854	     51.79927574	      9.48248583	     45.48088987	     30.98827073
